<?xml version="1.0" standalone="no"?>
<!DOCTYPE svg PUBLIC "-//W3C//DTD SVG 20010904//EN"
 "http://www.w3.org/TR/2001/REC-SVG-20010904/DTD/svg10.dtd">
<svg version="1.0" xmlns="http://www.w3.org/2000/svg"
 width="1000.000000pt" height="1000.000000pt" viewBox="0 0 1000.000000 1000.000000"
 preserveAspectRatio="xMidYMid meet">

<g transform="translate(0.000000,1000.000000) scale(0.100000,-0.100000)"
fill="#000000" stroke="none">
<path d="M5088 6139 c-226 -33 -430 -139 -589 -307 -136 -144 -215 -312 -241
-515 -45 -361 150 -735 472 -901 423 -218 952 -111 1230 249 42 55 43 57 24
74 -33 31 -288 247 -301 254 -7 5 -44 -25 -95 -77 -100 -102 -193 -152 -312
-169 -147 -21 -306 33 -416 143 -235 235 -156 619 157 768 72 34 86 37 185 40
113 4 201 -14 291 -59 l37 -20 19 43 c10 24 51 110 90 192 39 82 71 152 71
156 0 12 -131 68 -220 93 -142 41 -282 54 -402 36z"/>
<path d="M6761 6063 c-27 -55 -801 -1742 -801 -1748 0 -3 114 -5 253 -5 l252
0 39 93 c22 50 44 98 49 105 7 9 87 12 337 12 l327 0 44 -105 44 -105 253 0
c138 0 252 3 252 8 -1 4 -184 405 -408 892 l-407 885 -107 3 -107 3 -20 -38z
m219 -997 c49 -115 90 -210 90 -212 0 -2 -84 -4 -186 -4 -104 0 -184 4 -182 9
19 52 182 420 185 418 2 -2 43 -97 93 -211z"/>
<path d="M8000 5200 l0 -890 230 0 230 0 0 431 c0 252 4 429 9 427 5 -1 212
-200 460 -440 l451 -438 70 0 70 0 0 895 0 895 -230 0 -230 0 0 -431 c0 -249
-4 -429 -9 -427 -5 2 -209 198 -454 436 l-446 432 -75 0 -76 0 0 -890z"/>
<path d="M706 5393 c123 -373 254 -770 292 -883 l69 -205 64 -3 64 -3 204 436
c113 240 208 432 212 428 4 -4 97 -199 208 -433 l200 -425 65 -3 65 -3 291
879 c159 483 290 881 290 885 0 4 -112 7 -248 7 l-248 0 -118 -392 c-65 -216
-121 -396 -125 -400 -4 -4 -88 172 -186 392 -130 288 -185 400 -196 400 -12 0
-66 -111 -195 -400 -99 -220 -181 -400 -184 -400 -4 0 -60 179 -126 398 l-120
397 -251 3 -251 2 224 -677z"/>
<path d="M2920 5190 l0 -880 570 0 570 0 0 215 0 215 -340 0 -340 0 0 130 0
130 280 0 280 0 0 195 0 195 -280 0 -280 0 0 125 0 125 340 0 340 0 0 215 0
215 -570 0 -570 0 0 -880z"/>
<path d="M5679 5471 c-35 -35 -38 -77 -9 -114 63 -80 185 -6 146 88 -26 62
-89 74 -137 26z"/>
<path d="M5405 5431 c-63 -26 -83 -125 -36 -175 89 -94 237 -1 187 118 -23 54
-93 80 -151 57z"/>
</g>
</svg>
